<svg width="2100" height="463.00000000000006" xmlns="http://www.w3.org/2000/svg" version="1.1" enable-background="new 0 0 463 463">
 <g>
  <title>Layer 1</title>
  <g id="svg_1">
   <g id="svg_2">
    <path fill="#559E84" d="m71.5,0c-39.425,0 -71.5,32.075 -71.5,71.5s32.075,71.5 71.5,71.5s71.5,-32.075 71.5,-71.5s-32.075,-71.5 -71.5,-71.5zm0,128c-31.154,0 -56.5,-25.346 -56.5,-56.5s25.346,-56.5 56.5,-56.5s56.5,25.346 56.5,56.5s-25.346,56.5 -56.5,56.5z" id="svg_3"/>
    <path fill="#559E84" d="m71.5,160c-39.425,0 -71.5,32.075 -71.5,71.5s32.075,71.5 71.5,71.5s71.5,-32.075 71.5,-71.5s-32.075,-71.5 -71.5,-71.5zm0,128c-31.154,0 -56.5,-25.346 -56.5,-56.5s25.346,-56.5 56.5,-56.5s56.5,25.346 56.5,56.5s-25.346,56.5 -56.5,56.5z" id="svg_4"/>
    <path fill="#C97A86" d="m71.5,320c-39.425,0 -71.5,32.075 -71.5,71.5s32.075,71.5 71.5,71.5s71.5,-32.075 71.5,-71.5s-32.075,-71.5 -71.5,-71.5zm0,128c-31.154,0 -56.5,-25.346 -56.5,-56.5s25.346,-56.5 56.5,-56.5s56.5,25.346 56.5,56.5s-25.346,56.5 -56.5,56.5z" id="svg_5"/>
    <path fill="#559E84" d="m90.196,50.197l-26.696,26.697l-10.696,-10.697c-2.93,-2.929 -7.678,-2.929 -10.607,0s-2.929,7.678 0,10.606l16,16c1.464,1.465 3.384,2.197 5.303,2.197s3.839,-0.732 5.304,-2.197l32,-32c2.929,-2.929 2.929,-7.678 0,-10.606c-2.93,-2.929 -7.678,-2.929 -10.608,0z" id="svg_6"/>
    <path fill="#559E84" d="m90.196,210.197l-26.696,26.697l-10.696,-10.697c-2.93,-2.929 -7.678,-2.929 -10.607,0s-2.929,7.678 0,10.606l16,16c1.464,1.465 3.384,2.197 5.303,2.197s3.839,-0.732 5.304,-2.197l32,-32c2.929,-2.929 2.929,-7.678 0,-10.606c-2.93,-2.929 -7.678,-2.929 -10.608,0z" id="svg_7"/>
    <path stroke="null" fill="#CE7975" d="m175.5,55l144,0c4.143,0 7.5,-3.358 7.5,-7.5s-3.357,-7.5 -7.5,-7.5l-144,0c-4.143,0 -7.5,3.358 -7.5,7.5s3.357,7.5 7.5,7.5z" id="svg_8"/>
    <path fill="#FFB27C" d="m175.5,103l280,0c4.143,0 7.5,-3.358 7.5,-7.5s-3.357,-7.5 -7.5,-7.5l-280,0c-4.143,0 -7.5,3.358 -7.5,7.5s3.357,7.5 7.5,7.5z" id="svg_9"/>
    <path stroke="null" fill="#FFFA8D" d="m175.5,215l144,0c4.143,0 7.5,-3.358 7.5,-7.5s-3.357,-7.5 -7.5,-7.5l-144,0c-4.143,0 -7.5,3.358 -7.5,7.5s3.357,7.5 7.5,7.5z" id="svg_10"/>
    <path fill="#7DD8B5" d="m455.5,248l-280,0c-4.143,0 -7.5,3.358 -7.5,7.5s3.357,7.5 7.5,7.5l280,0c4.143,0 7.5,-3.358 7.5,-7.5s-3.357,-7.5 -7.5,-7.5z" id="svg_11"/>
    <path fill="#6D97AB" d="m175.5,375l144,0c4.143,0 7.5,-3.358 7.5,-7.5s-3.357,-7.5 -7.5,-7.5l-144,0c-4.143,0 -7.5,3.358 -7.5,7.5s3.357,7.5 7.5,7.5z" id="svg_12"/>
    <path fill="#426373" d="m455.5,408l-280,0c-4.143,0 -7.5,3.358 -7.5,7.5s3.357,7.5 7.5,7.5l280,0c4.143,0 7.5,-3.358 7.5,-7.5s-3.357,-7.5 -7.5,-7.5z" id="svg_13"/>
   </g>
  </g>
  <text style="cursor: move;" fill="#444444" x="512.741" y="325.61738" id="svg_16" font-size="240" font-family="sans-serif" text-anchor="start" xml:space="preserve" font-weight="normal" font-style="normal" stroke="#000" transform="matrix(1 0 0 1.0219 0 -2.38339)">KANBANCHIK</text>
 </g>

</svg>